<svg id="levelIcon" data-name="levelIcon" xmlns="http://www.w3.org/2000/svg" viewBox="0 0 50 50"><defs></defs><path class="level" d="M14.93,47.84V41l-3.7-2.73L4.9,40.13l-.24-.23,3.45-5.78L6.38,29.67.05,28.07l0-.32,6-3.11.76-4.75L2.17,15.13A11.17,11.17,0,0,1,5.4,15c1.09,0,2.19,0,3.49,0l2.79-3.53L9.87,4.94l.28-.18L15.91,8l4.54-1.76L22,0l.32-.08,3.21,6,4.55.79L35,1.46A49.75,49.75,0,0,1,35,8.62l3.76,2.94,6.5-1.92.18.22L42,15.68l1.72,4.45,6.22,1.59L50,22l-6,3.2-.71,4.53,4.76,4.9c-2.32.45-4.52,0-6.78,0l-2.9,3.66c.49,2.17,1.5,4.26,1.71,6.93L34,42,29.6,43.73,28,50.09l-.27,0-3.17-6-4.61-.79L15.21,48ZM9.85,21.91c.35-.51.74-1,1.05-1.53A17,17,0,0,1,15.79,15c5.88-4,12.12-5.18,18.84-2.2.06,0,.16,0,.24-.06-1.44-1.67-5.4-3.5-8-3.75a15,15,0,0,0-13.55,5.36,12.94,12.94,0,0,0-3.44,7.56l0,0C9.82,22.07,9.84,22,9.85,21.91Z"/></svg>